<svg version="1.2" xmlns="http://www.w3.org/2000/svg" viewBox="0 0 60 60" width="60" height="60"><style>.a{fill:#fff}.b{fill:#091931}.c{fill:#873eff}</style><path fill-rule="evenodd" class="a" d="m60 0v60h-60v-60z"/><path class="b" d="m23.9 17.9v15.7q0 2.5-1 4.4-1 1.9-2.9 3-2 1.1-4.9 1.1-3 0-5-1-1.9-1.1-2.9-3-1-1.9-1-4.5v-15.7h5.7v13.6q0 3.2 0.5 4.9 0.6 1.6 2.7 1.6 2 0 2.6-1.6 0.5-1.7 0.5-4.9v-13.6z"/><path class="b" d="m46.5 36.4h-6.9l-1.3 5.2h-5.8l7.2-23.7h6.8l7.3 23.7h-6zm-6.1-4.1h5.1l-2.5-10.5z"/><path fill-rule="evenodd" class="c" d="m35.5 23.2l-6.3 13.7h4.8l5.1-11.1 1.2-2.7-12.3-5.9c-0.2 0.1-0.3 0.1-0.6 0.1zm-2.9 19.4l-8-5.8 6.2-13.8h-4.8l-5.1 11.1-1.2 2.8 12.5 5.9q0.2-0.1 0.4-0.2z"/></svg>