<svg version="1.2" xmlns="http://www.w3.org/2000/svg" viewBox="0 0 20 20" width="20" height="20"><style>.a{fill:#fff}.b{fill:#091931}.c{fill:#873eff}</style><path fill-rule="evenodd" class="a" d="m10 19.9c-5.5 0-9.9-4.4-9.9-9.9 0-5.5 4.4-9.9 9.9-9.9 5.5 0 9.9 4.4 9.9 9.9 0 5.5-4.4 9.9-9.9 9.9z"/><path class="b" d="m8 6v5.2q0 0.8-0.4 1.5-0.3 0.6-0.9 1-0.7 0.3-1.7 0.3-1 0-1.6-0.3-0.7-0.4-1-1-0.3-0.6-0.3-1.5v-5.2h1.9v4.5q0 1.1 0.1 1.6 0.2 0.6 0.9 0.6 0.7 0 0.9-0.6 0.2-0.5 0.2-1.6v-4.5z"/><path class="b" d="m15.5 12.1h-2.3l-0.4 1.8h-2l2.4-7.9h2.3l2.4 7.9h-2zm-2-1.4h1.7l-0.8-3.5z"/><path fill-rule="evenodd" class="c" d="m11.8 7.7l-2.1 4.6h1.6l1.7-3.7 0.4-0.9-4.1-2q0 0.1-0.2 0.1zm-0.9 6.4l-2.7-1.9 2.1-4.6h-1.6l-1.7 3.7-0.4 0.9 4.1 2q0.1 0 0.2-0.1z"/></svg>